<?xml version="1.0" standalone="no"?>
<!DOCTYPE svg PUBLIC "-//W3C//DTD SVG 20010904//EN"
 "http://www.w3.org/TR/2001/REC-SVG-20010904/DTD/svg10.dtd">
<svg version="1.0" xmlns="http://www.w3.org/2000/svg"
 width="240.000000pt" height="240.000000pt" viewBox="0 0 240.000000 240.000000"
 preserveAspectRatio="xMidYMid meet">
<metadata>
Created by potrace 1.16, written by Peter Selinger 2001-2019
</metadata>
<g transform="translate(0.000000,240.000000) scale(0.100000,-0.100000)"
fill="#000000" stroke="none">
<path d="M569 1976 c-56 -20 -96 -53 -126 -104 l-28 -47 0 -626 0 -626 30 -49
c19 -30 49 -60 79 -79 l49 -30 627 0 627 0 49 30 c30 19 60 49 79 79 l30 49 0
627 0 627 -30 49 c-19 30 -49 60 -79 79 l-49 30 -611 2 c-482 2 -619 0 -647
-11z m1269 -86 c18 -11 41 -34 52 -52 19 -32 20 -52 20 -638 0 -586 -1 -606
-20 -638 -11 -18 -34 -41 -52 -52 -32 -19 -52 -20 -638 -20 -586 0 -606 1
-638 20 -18 11 -41 34 -52 52 -19 32 -20 52 -20 638 0 586 1 606 20 638 11 18
34 41 52 52 32 19 52 20 638 20 586 0 606 -1 638 -20z"/>
<path d="M645 1747 c-3 -7 -4 -89 -3 -182 l3 -170 30 0 30 0 3 119 3 120 163
-162 c89 -89 167 -162 173 -162 15 0 43 28 43 43 0 6 -73 84 -162 173 l-162
163 120 3 119 3 0 30 0 30 -178 3 c-139 2 -179 0 -182 -11z"/>
<path d="M1326 1074 c-9 -8 -16 -20 -16 -27 0 -6 73 -84 162 -173 l162 -163
-120 -3 -119 -3 0 -30 0 -30 180 0 180 0 0 180 0 180 -30 0 -30 0 -3 -119 -3
-120 -163 162 c-89 89 -167 162 -173 162 -7 0 -19 -7 -27 -16z"/>
</g>
</svg>
